# xmcd
#
# Track frame offsets:
# 151
# 20484
# 37795
# 54997
# 72495
# 89263
# 106301
# 128221
# 147455
# 162039
# 177568
# 195106
# 213073
# 226762
# 240633
# 257556
#
# Disc length: 3693 seconds
#
#
# Revision: 1
# Processed by: cddbd v1.5.1PL0 Copyright (c) Steve Scherf et al.
# Submitted via: FreeRIP 2.90 
#
DISCID=cc0e6b10
DTITLE=Σφακιανάκης Νότης - Πολύχρωμα and έντονα
DYEAR=2000
DGENRE=Λαϊκό
TTITLE0=Δεν μπορώ να καταλάβω
TTITLE1=Συγχώρεσέ με
TTITLE2=Καίγομαι
TTITLE3=Κάψε
TTITLE4=Εικόνες
TTITLE5=Πάρε με
TTITLE6=Αν
TTITLE7=Θέλω να ζήσω
TTITLE8=Τίποτα
TTITLE9=Δελτίο καρδιάς
TTITLE10=Το σώμα μου αητού φωλιά
TTITLE11=Γύρισε πίσω
TTITLE12=Το φινάλε της καρδιάς
TTITLE13=Ο Θεός να σε φυλάει
TTITLE14=Μάνα, μανούλα μου
TTITLE15=Η πιο γλυκιά πατρίδα
EXTD=
EXTT0=
EXTT1=
EXTT2=
EXTT3=
EXTT4=
EXTT5=
EXTT6=
EXTT7=
EXTT8=
EXTT9=
EXTT10=
EXTT11=
EXTT12=
EXTT13=
EXTT14=
EXTT15=
PLAYORDER=
